<?xml version="1.0" encoding="utf-8"?>
<!-- Generator: Adobe Illustrator 21.0.0, SVG Export Plug-In . SVG Version: 6.00 Build 0)  -->
<svg version="1.1" id="Capa_1" xmlns="http://www.w3.org/2000/svg" xmlns:xlink="http://www.w3.org/1999/xlink" x="0px" y="0px"
	 viewBox="0 0 99.2 34" style="enable-background:new 0 0 99.2 34;" xml:space="preserve">
<style type="text/css">
	.icono{fill:#F7D64C;}
</style>
<g>
	<path class="icono" d="M77.9,4.5H21.3c-6,0-10.9,4.9-10.9,10.9s4.9,10.9,10.9,10.9H78c6,0,10.9-4.9,10.9-10.9
		C88.8,9.4,83.9,4.5,77.9,4.5z M77.9,24.5H50.8L32.5,6.2h45.4c5,0,9.1,4.1,9.1,9.1C87.1,20.4,83,24.5,77.9,24.5z"/>
</g>
<g>
	<path class="icono" d="M77.9,29.1H21.3c-7.6,0-13.7-6.2-13.7-13.7c0-7.6,6.2-13.7,13.7-13.7H78c7.6,0,13.7,6.2,13.7,13.7
		S85.5,29.1,77.9,29.1z M21.3,3.4c-6.6,0-12,5.4-12,12s5.4,12,12,12H78c6.6,0,12-5.4,12-12s-5.4-12-12-12H21.3z"/>
</g>
</svg>
