<?xml version="1.0" encoding="utf-8"?>
<!-- Generator: Adobe Illustrator 21.0.0, SVG Export Plug-In . SVG Version: 6.00 Build 0)  -->
<svg version="1.1" id="Capa_1" xmlns="http://www.w3.org/2000/svg" xmlns:xlink="http://www.w3.org/1999/xlink" x="0px" y="0px"
	 viewBox="0 0 99.2 34" style="enable-background:new 0 0 99.2 34;" xml:space="preserve">
<style type="text/css">
	.icono{fill:#F7D64C;}
</style>
<g>
	<path class="icono" d="M77.9,4.5H21.3c-6,0-10.9,4.9-10.9,10.9s4.9,10.9,10.9,10.9H78c6,0,10.9-4.9,10.9-10.9
		C88.8,9.4,83.9,4.5,77.9,4.5z"/>
	<path class="icono" d="M77.9,1.6H21.3c-7.6,0-13.7,6.2-13.7,13.7c0,7.6,6.2,13.7,13.7,13.7H78c7.6,0,13.7-6.2,13.7-13.7
		S85.5,1.6,77.9,1.6z M77.9,27.4H21.3c-6.6,0-12-5.4-12-12s5.4-12,12-12H78c6.6,0,12,5.4,12,12S84.6,27.4,77.9,27.4z"/>
</g>
</svg>
